<?xml version="1.0" encoding="UTF-8" standalone="no"?>
<svg
   xmlns:dc="http://purl.org/dc/elements/1.1/"
   xmlns:cc="http://creativecommons.org/ns#"
   xmlns:rdf="http://www.w3.org/1999/02/22-rdf-syntax-ns#"
   xmlns:svg="http://www.w3.org/2000/svg"
   xmlns="http://www.w3.org/2000/svg"
   xmlns:sodipodi="http://sodipodi.sourceforge.net/DTD/sodipodi-0.dtd"
   xmlns:inkscape="http://www.inkscape.org/namespaces/inkscape"
   viewBox="0 0 946 168"
   focusable="false"
   id="svg2"
   version="1.1"
   inkscape:version="0.91 r13725"
   sodipodi:docname="gatsby-mdx-tts.svg"
   width="946"
   height="168"
   inkscape:export-filename="C:\Users\flogy\Downloads\gatsby-mdx-tts.png"
   inkscape:export-xdpi="89.929703"
   inkscape:export-ydpi="89.929703">
  <metadata
     id="metadata14">
    <rdf:RDF>
      <cc:Work
         rdf:about="">
        <dc:format>image/svg+xml</dc:format>
        <dc:type
           rdf:resource="http://purl.org/dc/dcmitype/StillImage" />
        <dc:title>
    Gatsby
  </dc:title>
      </cc:Work>
    </rdf:RDF>
  </metadata>
  <defs
     id="defs12">
    <linearGradient
       gradientUnits="userSpaceOnUse"
       y2="-20.706699"
       x2="120.711"
       y1="120.715"
       x1="-20.710699"
       id="paint0_linear">
      <stop
         id="stop4177"
         stop-color="#055F4E" />
      <stop
         id="stop4179"
         stop-color="#56C0A7"
         offset="1" />
    </linearGradient>
  </defs>
  <sodipodi:namedview
     pagecolor="#ffffff"
     bordercolor="#666666"
     borderopacity="1"
     objecttolerance="10"
     gridtolerance="10"
     guidetolerance="10"
     inkscape:pageopacity="0"
     inkscape:pageshadow="2"
     inkscape:window-width="2560"
     inkscape:window-height="1377"
     id="namedview10"
     showgrid="false"
     inkscape:zoom="1"
     inkscape:cx="83.015102"
     inkscape:cy="-11.995734"
     inkscape:window-x="1072"
     inkscape:window-y="238"
     inkscape:window-maximized="1"
     inkscape:current-layer="svg2" />
  <title
     id="title4">
    Gatsby
  </title>
  <g
     id="g4234"
     transform="matrix(4,0,0,4,305,28)">
    <g
       id="g4213">
      <g
         id="g4209">
        <circle
           style="fill:#663399"
           id="circle6"
           r="14"
           cy="14"
           cx="14" />
        <path
           style="fill:#ffffff"
           inkscape:connector-curvature="0"
           id="path8"
           d="M 6.2,21.8 C 4.1,19.7 3,16.9 3,14.2 L 13.9,25 C 11.1,24.9 8.3,23.9 6.2,21.8 Z M 16.4,24.7 3.3,11.6 C 4.4,6.7 8.8,3 14,3 c 3.7,0 6.9,1.8 8.9,4.5 L 21.4,8.8 C 19.7,6.5 17,5 14,5 10.1,5 6.8,7.5 5.5,11 L 17,22.5 c 2.9,-1 5.1,-3.5 5.8,-6.5 l -4.8,0 0,-2 7,0 c 0,5.2 -3.7,9.6 -8.6,10.7 z" />
      </g>
      <g
         style="fill:none"
         id="g4188"
         transform="matrix(0.28,0,0,0.28,56,0)">
        <path
           id="path4144"
           d="M 100,0 0,0 0,100 100,100 100,0 Z"
           inkscape:connector-curvature="0"
           style="fill:url(#paint0_linear)" />
        <path
           id="path4146"
           d="m 36.72,67.3333 -18.6667,0 c -0.3536,0 -0.6928,-0.1405 -0.9428,-0.3906 -0.2501,-0.25 -0.3905,-0.5892 -0.3905,-0.9428 l 0,-10.6666 2.6666,0 0,9.3333 17.3334,0 0,2.6667 z"
           inkscape:connector-curvature="0"
           style="fill:#ffffff" />
        <path
           id="path4148"
           d="M 52.3333,30.3867 39,17.0533 c -0.1246,-0.1236 -0.2724,-0.2213 -0.4348,-0.2877 -0.1625,-0.0663 -0.3364,-0.1 -0.5119,-0.099 l -20,0 c -0.3536,0 -0.6928,0.1405 -0.9428,0.3906 C 16.8604,17.3072 16.72,17.6464 16.72,18 l 0,30.6666 2.6666,0 0,-29.3333 17.3334,0 0,12 c 0,0.3536 0.1404,0.6928 0.3905,0.9428 0.25,0.2501 0.5892,0.3905 0.9428,0.3905 l 12,0 0,2.6667 2.6667,0 0,-4 c 10e-4,-0.1755 -0.0326,-0.3494 -0.099,-0.5119 -0.0664,-0.1624 -0.1641,-0.3102 -0.2877,-0.4347 l 0,0 z M 39.3866,30 l 0,-8.7867 8.7867,8.7867 -8.7867,0 z"
           inkscape:connector-curvature="0"
           style="fill:#ffffff" />
        <path
           id="path4150"
           d="m 32.72,39.3333 -10.6667,0 0,2.6666 10.6667,0 0,-2.6666 z"
           inkscape:connector-curvature="0"
           style="fill:#ffffff" />
        <path
           id="path4152"
           d="M 81.5866,83.3334 C 81.3317,83.3364 81.0799,83.2769 80.8533,83.16 L 69.7066,77.5867 c -3.0054,1.6896 -6.378,2.6198 -9.8247,2.7095 C 56.4352,80.386 53.0187,79.6327 49.9294,78.1019 46.84,76.571 44.1713,74.3088 42.155,71.512 40.1388,68.7151 38.836,65.4682 38.36,62.0534 l 2.6667,-0.36 c 0.4219,3.0445 1.5954,5.9361 3.4147,8.4135 1.8192,2.4775 4.2269,4.4628 7.0056,5.7767 2.7787,1.3139 5.8409,1.9151 8.9101,1.7492 3.0691,-0.1659 6.0487,-1.0937 8.6695,-2.6994 0.2027,-0.1171 0.4327,-0.1787 0.6667,-0.1787 0.2341,0 0.464,0.0616 0.6667,0.1787 l 9.1066,4.56 -4.5733,-8.96 c -0.117,-0.2027 -0.1786,-0.4327 -0.1786,-0.6667 0,-0.2341 0.0616,-0.464 0.1786,-0.6667 1.9385,-2.9638 2.9632,-6.4319 2.9467,-9.9733 0.0168,-3.1996 -0.7968,-6.3487 -2.3614,-9.1397 -1.5645,-2.791 -3.8263,-5.1284 -6.5645,-6.7837 -2.7381,-1.6552 -5.8589,-2.5717 -9.0573,-2.66 -3.1984,-0.0882 -6.3649,0.6549 -9.1902,2.1567 l -1.2533,-2.3466 c 3.2208,-1.705 6.8275,-2.5486 10.4704,-2.4492 3.6428,0.0995 7.1982,1.1386 10.3211,3.0167 3.123,1.8781 5.7077,4.5313 7.5033,7.7025 1.7956,3.1711 2.7413,6.7524 2.7452,10.3966 0.0089,3.7932 -1.0143,7.5173 -2.96,10.7734 L 83.08,80.84 c 0.161,0.3121 0.2193,0.667 0.1666,1.0142 -0.0526,0.3472 -0.2136,0.6689 -0.46,0.9192 -0.1516,0.1697 -0.3362,0.3069 -0.5425,0.4032 -0.2062,0.0962 -0.4299,0.1496 -0.6575,0.1568 l 0,0 z"
           inkscape:connector-curvature="0"
           style="fill:#ffffff" />
        <path
           id="path4154"
           d="m 59.3866,54 -2.6666,0 0,10.6667 2.6666,0 0,-10.6667 z"
           inkscape:connector-curvature="0"
           style="fill:#ffffff" />
        <path
           id="path4156"
           d="m 63.3866,52.6666 -2.6666,0 0,13.3334 2.6666,0 0,-13.3334 z"
           inkscape:connector-curvature="0"
           style="fill:#ffffff" />
        <path
           id="path4158"
           d="m 67.3866,51.3333 -2.6666,0 0,16 2.6666,0 0,-16 z"
           inkscape:connector-curvature="0"
           style="fill:#ffffff" />
        <path
           id="path4160"
           d="m 71.3866,55.3333 -2.6666,0 0,9.3333 2.6666,0 0,-9.3333 z"
           inkscape:connector-curvature="0"
           style="fill:#ffffff" />
        <path
           id="path4162"
           d="m 51.3866,54 -2.6666,0 0,10.6667 2.6666,0 0,-10.6667 z"
           inkscape:connector-curvature="0"
           style="fill:#ffffff" />
        <path
           id="path4164"
           d="m 47.3867,46 -25.3334,0 0,2.6667 25.3334,0 0,-2.6667 z"
           inkscape:connector-curvature="0"
           style="fill:#ffffff" />
        <path
           id="path4166"
           d="m 40.72,52.6666 -18.6667,0 0,2.6667 18.6667,0 0,-2.6667 z"
           inkscape:connector-curvature="0"
           style="fill:#ffffff" />
        <path
           id="path4168"
           d="m 40.7199,39.3333 -5.3333,0 0,2.6666 5.3333,0 0,-2.6666 z"
           inkscape:connector-curvature="0"
           style="fill:#ffffff" />
        <path
           id="path4170"
           d="m 55.3866,56.6666 -2.6666,0 0,5.3334 2.6666,0 0,-5.3334 z"
           inkscape:connector-curvature="0"
           style="fill:#ffffff" />
        <path
           id="path4172"
           d="m 58.0533,46 -8,0 0,2.5333 8,0 0,-2.5333 z"
           inkscape:connector-curvature="0"
           style="fill:#ffffff" />
      </g>
    </g>
    <text
       sodipodi:linespacing="125%"
       id="text4205"
       y="17.5"
       x="37.32243"
       style="font-style:normal;font-weight:normal;font-size:11.16510868px;line-height:125%;font-family:sans-serif;letter-spacing:0px;word-spacing:0px;fill:#000000;fill-opacity:1;stroke:none;stroke-width:1px;stroke-linecap:butt;stroke-linejoin:miter;stroke-opacity:1"
       xml:space="preserve"><tspan
         y="17.5"
         x="37.32243"
         id="tspan4207"
         sodipodi:role="line">+</tspan></text>
  </g>
</svg>
